<?xml version="1.0" standalone="no"?>
<!DOCTYPE svg PUBLIC "-//W3C//DTD SVG 20010904//EN"
 "http://www.w3.org/TR/2001/REC-SVG-20010904/DTD/svg10.dtd">
<svg version="1.0" xmlns="http://www.w3.org/2000/svg"
 width="500.000000pt" height="500.000000pt" viewBox="0 0 500.000000 500.000000"
 preserveAspectRatio="xMidYMid meet">
<metadata>
Created by potrace 1.11, written by Peter Selinger 2001-2013
</metadata>
<g transform="translate(0.000000,500.000000) scale(0.100000,-0.100000)"
fill="#000000" stroke="none">
<path d="M1079 4982 c6 -10 407 -572 892 -1248 485 -676 882 -1236 883 -1244
0 -8 -191 -280 -424 -605 -233 -324 -615 -858 -850 -1185 -234 -327 -443 -619
-464 -647 l-38 -53 504 0 503 0 828 1150 c455 632 837 1171 849 1197 16 37 21
69 22 143 0 82 -4 102 -26 150 -14 30 -399 573 -855 1205 l-829 1150 -502 3
c-486 2 -502 2 -493 -16z"/>
</g>
</svg>
